<?xml version="1.0" encoding="UTF-8"?>
<svg version="1.1" xmlns="http://www.w3.org/2000/svg" width="1842" height="356">
<path d="M0 0 C16.83 0 33.66 0 51 0 C52.28390625 3.62097656 53.5678125 7.24195313 54.890625 10.97265625 C64.26188518 37.3784232 73.69561346 63.75863013 83.30062866 90.08050537 C90.04897057 108.57785085 96.69931323 127.10844895 103.29751587 145.65985107 C107.96749987 158.78682535 112.67701883 171.8978485 117.48046875 184.9765625 C117.92564346 186.18941422 118.37081818 187.40226593 118.82948303 188.65187073 C120.9662574 194.46948393 123.10954798 200.28459131 125.26196289 206.09643555 C126.02371223 208.16450954 126.78535568 210.23262254 127.546875 212.30078125 C127.89892502 213.2447879 128.25097504 214.18879456 128.61369324 215.16140747 C128.93034439 216.02378021 129.24699554 216.88615295 129.57324219 217.7746582 C129.85045105 218.52286331 130.12765991 219.27106842 130.41326904 220.04194641 C131 222 131 222 131 225 C114.5 225 98 225 81 225 C77.2875 213.7078125 77.2875 213.7078125 73.5 202.1875 C72.3253418 198.62618286 72.3253418 198.62618286 71.12695312 194.99291992 C70.51136759 193.11388454 69.89611061 191.23474147 69.28125 189.35546875 C68.79543457 187.88865662 68.79543457 187.88865662 68.29980469 186.39221191 C67.99526367 185.45864868 67.69072266 184.52508545 67.37695312 183.56323242 C66.97724304 182.34744759 66.97724304 182.34744759 66.56945801 181.10710144 C66 179 66 179 66 176 C38.94 176 11.88 176 -16 176 C-16.66 178.97 -17.32 181.94 -18 185 C-18.44399281 186.57315368 -18.91099921 188.14039954 -19.42041016 189.69360352 C-19.684104 190.50462524 -19.94779785 191.31564697 -20.21948242 192.15124512 C-20.48994385 192.96887329 -20.76040527 193.78650146 -21.0390625 194.62890625 C-21.29260498 195.40617065 -21.54614746 196.18343506 -21.80737305 196.98425293 C-22.74195933 199.84518286 -23.68389352 202.70370826 -24.625 205.5625 C-26.72875 211.976875 -28.8325 218.39125 -31 225 C-47.17 225 -63.34 225 -80 225 C-77.75008535 214.87538409 -77.75008535 214.87538409 -76.02661133 210.11889648 C-75.63959549 209.04224228 -75.25257965 207.96558807 -74.85383606 206.85630798 C-74.43414047 205.70618729 -74.01444489 204.55606659 -73.58203125 203.37109375 C-72.89920391 201.47851341 -72.21637658 199.58593306 -71.53354931 197.6933527 C-70.80327471 195.6726488 -70.07027021 193.65295495 -69.33642578 191.63354492 C-67.78391444 187.36118475 -66.23904661 183.08608502 -64.6953125 178.81054688 C-62.80931206 173.58851124 -60.92159604 168.36710245 -59.03160667 163.14650917 C-55.7315543 154.03041903 -52.44493181 144.90957014 -49.16796875 135.78515625 C-48.93293577 135.13072981 -48.69790279 134.47630337 -48.4557476 133.80204582 C-47.50989695 131.16820757 -46.56415273 128.53433114 -45.61857891 125.90039349 C-43.96713834 121.3002978 -42.31440814 116.70066716 -40.66088867 112.10131836 C-36.21263717 99.72788785 -31.76704141 87.3535173 -27.32928467 74.97631836 C-25.51327242 69.9113986 -23.69612935 64.84688475 -21.87874985 59.78245544 C-20.64877494 56.3546559 -19.41941049 52.9266404 -18.19165039 49.49804688 C-12.26395429 32.94558584 -6.21231353 16.44808063 0 0 Z M24 49 C20.93869249 58.42349989 17.87847904 67.84735431 14.81961441 77.27164745 C13.39882272 81.6489611 11.9776719 86.02615743 10.55566406 90.40307617 C9.18019095 94.63680873 7.80570857 98.87086179 6.43187714 103.10512733 C5.91080855 104.71053541 5.38939902 106.31583288 4.86762238 107.92101097 C4.12988591 110.19077112 3.39342759 112.4609426 2.65722656 114.73120117 C2.44718994 115.37641724 2.23715332 116.0216333 2.02075195 116.68640137 C-0.05771148 123.10417942 -2.01527368 129.54963947 -4 136 C14.81 136 33.62 136 53 136 C51.33942894 127.59788109 51.33942894 127.59788109 49.01635742 119.51904297 C48.6322319 118.35017548 48.24810638 117.18130798 47.8523407 115.97702026 C47.44087296 114.74452545 47.02940521 113.51203064 46.60546875 112.2421875 C46.1713546 110.92735498 45.73779782 109.61233831 45.30476379 108.29714966 C44.16918768 104.85264124 43.02689966 101.4103987 41.88287354 97.96868896 C40.06462956 92.4941675 38.2573571 87.01600425 36.44833755 81.53842926 C36.01296211 80.2205874 35.57732301 78.90283261 35.14141464 77.58516693 C31.9986874 68.08530639 28.91613066 58.57203192 26 49 C25.34 49 24.68 49 24 49 Z " fill="#000000" transform="translate(148,56)"/>
<path d="M0 0 C113.30372493 0 113.30372493 0 131 8 C132.39992188 8.62841797 132.39992188 8.62841797 133.828125 9.26953125 C149.493782 17.03522122 160.45657814 30.57279015 166 47 C172.07461662 66.15089978 170.7193678 88.75591063 162.5703125 107.0546875 C154.06656699 123.00449873 140.66977904 133.7835516 123.75 139.75 C106.46644575 144.93392091 90.47732827 145.37480988 72.5 145.1875 C64.085 145.125625 55.67 145.06375 47 145 C47 171.4 47 197.8 47 225 C31.49 225 15.98 225 0 225 C0 150.75 0 76.5 0 0 Z M47 39 C46.90056028 41.08075409 46.87200404 43.16491848 46.87060547 45.24804688 C46.86885315 45.90007584 46.86710083 46.5521048 46.86529541 47.22389221 C46.86087796 49.38887153 46.86381449 51.55376979 46.8671875 53.71875 C46.86651443 55.21708187 46.86554438 56.71541363 46.86428833 58.21374512 C46.8628115 61.35783933 46.86496542 64.50190517 46.86962891 67.64599609 C46.8753262 71.68486539 46.87204711 75.72366824 46.86605644 79.7625351 C46.86245042 82.8576508 46.86358961 85.95275065 46.86618423 89.04786682 C46.86685339 90.53748075 46.86602548 92.0270961 46.86370468 93.51670837 C46.86117747 95.59516235 46.86501967 97.67350731 46.87060547 99.75195312 C46.87140106 100.93696411 46.87219666 102.1219751 46.87301636 103.34289551 C46.69775127 105.9219334 46.69775127 105.9219334 48 107 C50.65976146 107.11378761 53.2924598 107.16419822 55.953125 107.16796875 C56.764328 107.17129715 57.57553101 107.17462555 58.41131592 107.17805481 C60.13976473 107.18313386 61.86822342 107.18546284 63.59667969 107.18530273 C66.19744044 107.18745647 68.79775381 107.20550859 71.3984375 107.22460938 C93.11172301 107.35571912 93.11172301 107.35571912 111.875 97.3671875 C119.45625751 89.21733568 121.11143329 79.88331759 121 69 C120.08636494 58.78134328 116.4389232 51.37083236 108.5703125 44.76171875 C99.79184901 38.74486915 89.81216037 37.84294589 79.48046875 37.8671875 C78.58129227 37.86623077 77.68211578 37.86527405 76.75569153 37.86428833 C74.86552866 37.86361053 72.97536342 37.8654368 71.08520508 37.86962891 C68.17979794 37.87501428 65.27454319 37.86965436 62.36914062 37.86328125 C60.53124966 37.86394149 58.69335878 37.86522152 56.85546875 37.8671875 C55.98262741 37.86516327 55.10978607 37.86313904 54.210495 37.86105347 C50.2913615 37.48537774 50.2913615 37.48537774 47 39 Z " fill="#000000" transform="translate(299,56)"/>
<path d="M0 0 C7.92 0 15.84 0 24 0 C27.75510259 8.84945841 31.21696207 17.77992444 34.54296875 26.796875 C35.06875655 28.21656804 35.59478405 29.63617231 36.12103271 31.05569458 C37.23432411 34.05990404 38.34623193 37.06462013 39.45700073 40.06976318 C42.10280558 47.22731895 44.75662508 54.3819049 47.40965462 61.53678513 C48.29594392 63.9271763 49.18197285 66.31766386 50.06797791 68.7081604 C54.66431918 81.10720026 59.28779108 93.49586696 63.9375 105.875 C64.27556671 106.7754303 64.61363342 107.6758606 64.96194458 108.60357666 C66.77677424 113.43717257 68.59248233 118.27043788 70.40869141 123.10351562 C75.07327566 135.5168632 79.7346075 147.93143147 84.39345455 160.34693336 C85.8912457 164.33829735 87.38948364 168.32949226 88.8888855 172.32025146 C99.7977205 201.35561716 99.7977205 201.35561716 104.8046875 215.0859375 C105.13695343 215.99517975 105.46921936 216.904422 105.81155396 217.84121704 C108 223.87576389 108 223.87576389 108 225 C100.41 225 92.82 225 85 225 C79.4778703 210.6317402 74.54890972 196.08258937 69.625 181.5 C66.77875 173.085 63.9325 164.67 61 156 C28.66 156 -3.68 156 -37 156 C-49.10228853 188.84870715 -49.10228853 188.84870715 -61.09887695 221.7355957 C-62 224 -62 224 -63 225 C-64.70772358 225.08713831 -66.41898649 225.10700007 -68.12890625 225.09765625 C-69.68061523 225.09282227 -69.68061523 225.09282227 -71.26367188 225.08789062 C-72.35228516 225.07951172 -73.44089844 225.07113281 -74.5625 225.0625 C-76.2012207 225.05573242 -76.2012207 225.05573242 -77.87304688 225.04882812 C-80.58208495 225.03699826 -83.29101599 225.02051543 -86 225 C-82.29527157 214.32643577 -78.42729127 203.7342582 -74.34002686 193.20141602 C-72.70142332 188.97763754 -71.07208989 184.75027847 -69.44140625 180.5234375 C-69.08888794 179.61023743 -68.73636963 178.69703735 -68.37316895 177.75616455 C-63.84372744 166.01560786 -59.36068799 154.25732533 -54.875 142.5 C-53.97779742 140.14892036 -53.08058051 137.79784618 -52.18334961 135.44677734 C-50.36260492 130.67552746 -48.54208421 125.90419218 -46.72167969 121.1328125 C-44.0576708 114.15064822 -41.3923455 107.16898709 -38.7265625 100.1875 C-38.29405685 99.05476151 -37.86155121 97.92202301 -37.41593933 96.75495911 C-35.25038102 91.08349441 -33.08451235 85.41214845 -30.91821289 79.7409668 C-26.79875412 68.95559741 -22.68230936 58.16909994 -18.57510376 47.37905884 C-16.86330016 42.88204594 -15.15015874 38.38554304 -13.43671608 33.88915443 C-12.26445259 30.81260195 -11.0932188 27.73566327 -9.92333984 24.65820312 C-8.63433926 21.26752046 -7.34283267 17.87780231 -6.05078125 14.48828125 C-5.47732719 12.97679253 -5.47732719 12.97679253 -4.89228821 11.43476868 C-4.53893906 10.50923691 -4.1855899 9.58370514 -3.8215332 8.63012695 C-3.36361137 7.42668388 -3.36361137 7.42668388 -2.8964386 6.19892883 C-2.03544489 4.08694494 -1.01997903 2.03995807 0 0 Z M11 24 C9.27986265 28.56246786 7.55983219 33.12497601 5.83984375 37.6875 C5.44058591 38.74656744 5.44058591 38.74656744 5.03326225 39.82703018 C1.80546325 48.38921305 -1.42133382 56.95177197 -4.64599609 65.51513672 C-5.53899453 67.88648675 -6.43199495 70.25783603 -7.32499695 72.62918472 C-7.91920242 74.2071071 -8.51338978 75.7850363 -9.1075592 77.36297226 C-12.37164859 86.03098877 -15.63956662 94.69750287 -18.92106628 103.35894775 C-20.34181441 107.10993026 -21.75917056 110.86218786 -23.17575073 114.61474609 C-23.80625106 116.28208045 -24.43850187 117.94875396 -25.07254028 119.61474609 C-25.93036384 121.86913407 -26.78232639 124.12564842 -27.6328125 126.3828125 C-28.09574707 127.60371582 -28.55868164 128.82461914 -29.03564453 130.08251953 C-30.15692157 132.96261564 -30.15692157 132.96261564 -30 136 C-2.61 136 24.78 136 53 136 C51.48501633 128.87307145 51.48501633 128.87307145 49.33032227 122.12182617 C49.01073547 121.26744965 48.69114868 120.41307312 48.36187744 119.5328064 C48.01687195 118.62865997 47.67186646 117.72451355 47.31640625 116.79296875 C46.94860046 115.8135733 46.58079468 114.83417786 46.20184326 113.82510376 C45.40766985 111.71183939 44.61086243 109.59956337 43.81167603 107.4881897 C41.66934187 101.82751406 39.5466914 96.15945672 37.421875 90.4921875 C36.75995903 88.72893883 36.75995903 88.72893883 36.08467102 86.93006897 C31.08192254 73.58633917 26.1927803 60.20140475 21.3125 46.8125 C20.8915506 45.65833588 20.4706012 44.50417175 20.03689575 43.31503296 C17.68902556 36.87750277 15.34310169 30.43926734 13 24 C12.34 24 11.68 24 11 24 Z " fill="#000000" transform="translate(629,56)"/>
<path d="M0 0 C4.40617281 2.16303029 7.1644597 4.41114924 9 9 C9.55773107 13.25269938 9.47552619 16.81118452 7.875 20.8125 C4.89299266 24.29150857 2.25035981 26.63774696 -2.40234375 27.38671875 C-6.71602929 27.57483436 -9.49385284 27.23926957 -13.4375 25.375 C-16.9900929 22.08235292 -18.90231153 19.53582976 -19.09375 14.56640625 C-18.77868943 9.2655122 -18.06762579 5.71897215 -14 2 C-9.50894027 -0.70038133 -5.1038821 -0.6531034 0 0 Z " fill="#000000" transform="translate(1115,56)"/>
<path d="M0 0 C6.6 0 13.2 0 20 0 C20 74.25 20 148.5 20 225 C13.73 225 7.46 225 1 225 C0.01 214.605 0.01 214.605 -1 204 C-2.85625 205.98 -2.85625 205.98 -4.75 208 C-18.64414515 221.80730674 -35.46660701 228.07428489 -54.8125 228.3125 C-70.51782438 228.21799758 -86.52434738 224.28692978 -98.140625 213.04296875 C-115.85261281 193.58210819 -120.22966477 170.24038698 -120.25 144.5625 C-120.25067474 143.79988861 -120.25134949 143.03727722 -120.25204468 142.2515564 C-120.23652105 131.22615204 -119.93958425 120.69583666 -117 110 C-116.82839355 109.3615918 -116.65678711 108.72318359 -116.47998047 108.06542969 C-111.84868651 91.2868187 -103.13459115 76.54812294 -87.88671875 67.53125 C-70.19027323 58.14423154 -49.94825578 55.80246514 -30.64453125 61.69140625 C-18.78438486 65.94987253 -6.76080005 74.47839991 -1 86 C-0.67 57.62 -0.34 29.24 0 0 Z M-85 91 C-96.98073083 106.08776684 -99.3944253 125.0769683 -99.3125 143.75 C-99.31067719 144.408862 -99.30885437 145.067724 -99.30697632 145.74655151 C-99.21618465 165.2537482 -96.38335563 183.84715043 -83 199 C-73.27617032 208.39122384 -61.17062172 210.43229457 -48.12890625 210.20703125 C-33.3446913 209.65520459 -20.25962678 202.7895084 -9.59765625 192.8203125 C-8.74042969 191.88960938 -7.88320313 190.95890625 -7 190 C-6.42135193 189.4457283 -5.84270386 188.8914566 -5.246521 188.32038879 C1.27487472 181.30616683 1.01032992 173.98988777 0.89453125 164.94140625 C0.89671192 163.38638353 0.90112137 161.83136252 0.90763855 160.27635193 C0.91342061 157.02900689 0.89462276 153.78302099 0.85766602 150.53588867 C0.81222308 146.39864985 0.82476678 142.26404883 0.85547352 138.12675571 C0.87337648 134.91870728 0.86195721 131.71126364 0.84183311 128.50324821 C0.83537146 126.97921888 0.83734285 125.45512711 0.84833717 123.93112373 C0.895258 114.5233716 -0.00967776 107.57045042 -6 100 C-6.76183594 99.02546875 -7.52367187 98.0509375 -8.30859375 97.046875 C-18.85665343 85.66658308 -28.93863835 77.66676826 -44.95703125 76.78125 C-60.29759113 76.32894425 -74.19742062 79.39481934 -85 91 Z " fill="#000000" transform="translate(877,56)"/>
<path d="M0 0 C11.69414354 9.81208427 17.43352848 21.05183479 18.875 36.125 C19.03018134 37.97559544 19.14888087 39.8308112 19.1875 41.6875 C18.1875 42.6875 18.1875 42.6875 16.23803711 42.80102539 C15.4053833 42.79578857 14.57272949 42.79055176 13.71484375 42.78515625 C12.81572266 42.78193359 11.91660156 42.77871094 10.99023438 42.77539062 C9.57194336 42.76282227 9.57194336 42.76282227 8.125 42.75 C6.7009082 42.74323242 6.7009082 42.74323242 5.24804688 42.73632812 C2.89446935 42.7245011 0.54101523 42.70802025 -1.8125 42.6875 C-1.97105469 41.6253125 -2.12960937 40.563125 -2.29296875 39.46875 C-3.99829792 28.83182215 -6.09848809 20.94880405 -14.87890625 14 C-26.9463498 5.80876559 -41.90989495 5.47411363 -55.8125 7.9921875 C-62.93064518 9.64196594 -70.77542293 12.05957304 -74.9609375 18.4375 C-78.2482955 24.40603651 -79.51781288 30.08418679 -78.1875 36.8125 C-76.22517875 43.25293898 -72.69000798 46.45610389 -66.9375 49.625 C-55.60711906 54.94958393 -43.2101232 57.91849792 -31.18359375 61.25390625 C5.78655783 71.52080603 5.78655783 71.52080603 17.1875 87.6875 C23.42753318 99.66112889 23.97989706 113.91605677 20.28515625 126.8046875 C15.62632058 139.04034845 7.25793691 146.19442752 -4.359375 151.62890625 C-25.11633873 160.58613105 -52.16587114 160.57570515 -73.25 152.4375 C-86.59716827 146.30254988 -95.8117081 137.5028632 -101.625 123.96484375 C-104.26857823 116.66891569 -105.24203323 109.41909807 -104.8125 101.6875 C-103.25643249 100.13143249 -101.75292629 100.55779231 -99.59375 100.5546875 C-98.31951172 100.55275391 -98.31951172 100.55275391 -97.01953125 100.55078125 C-96.12621094 100.55464844 -95.23289062 100.55851562 -94.3125 100.5625 C-93.41917969 100.55863281 -92.52585937 100.55476563 -91.60546875 100.55078125 C-90.75597656 100.55207031 -89.90648437 100.55335938 -89.03125 100.5546875 C-88.24685547 100.55581543 -87.46246094 100.55694336 -86.65429688 100.55810547 C-84.8125 100.6875 -84.8125 100.6875 -83.8125 101.6875 C-83.56362705 103.78942697 -83.3390281 105.89423964 -83.125 108 C-81.78286713 117.48183075 -79.07524528 125.69450727 -71.25 131.6875 C-65.52275442 135.24533438 -59.32623343 137.09961741 -52.8125 138.6875 C-51.64847656 138.97753906 -51.64847656 138.97753906 -50.4609375 139.2734375 C-35.69591066 141.58183403 -20.63612946 139.55171475 -7.8125 131.6875 C-2.67244695 127.77659007 -0.40799153 122.83056899 1.1875 116.6875 C2.1643236 109.10971692 1.66344508 102.07080804 -2.8125 95.6875 C-12.477564 85.51130281 -28.52501186 82.99151083 -41.46875 79.4375 C-85.13335533 67.43366492 -85.13335533 67.43366492 -94.5234375 52.04296875 C-99.98509743 42.06302651 -100.36380933 30.47174861 -98.15625 19.39453125 C-94.33156976 7.70617657 -86.44467839 0.4547702 -75.8125 -5.3125 C-71.88015512 -7.02685993 -67.97108547 -8.27148387 -63.8125 -9.3125 C-62.92691406 -9.53679687 -62.04132813 -9.76109375 -61.12890625 -9.9921875 C-41.12794068 -14.13423143 -16.80538457 -12.46210106 0 0 Z " fill="#000000" transform="translate(1270.8125,126.3125)"/>
<path d="M0 0 C16.89840433 13.54424975 26.29138234 32.43193082 29.06103516 53.69824219 C31.74394003 81.53613359 29.76177043 110.62059376 11.66699219 133.17041016 C-1.88959382 148.51619026 -19.28220797 155.30528029 -39.3828125 156.68603516 C-58.50106815 157.51259182 -78.0515763 153.88818682 -92.64160156 140.78369141 C-93.39183594 140.12626953 -94.14207031 139.46884766 -94.91503906 138.79150391 C-110.04759934 124.6918829 -116.83661167 104.56714734 -117.81005859 84.27148438 C-118.6671882 55.87144515 -116.56638546 27.91808662 -96.11035156 6.16650391 C-71.87178564 -17.22831446 -27.35335234 -20.26686516 0 0 Z M-78.64160156 15.78369141 C-79.35058594 16.46560547 -80.05957031 17.14751953 -80.79003906 17.85009766 C-96.37819799 34.04671631 -97.06051417 57.81503234 -96.85253906 78.98291016 C-96.46090418 96.51219743 -92.64893228 115.09866623 -79.64160156 127.78369141 C-67.44019358 137.87810586 -54.11568408 140.65103792 -38.54760742 139.50976562 C-25.5238273 138.24832898 -15.06411265 133.65439579 -5.95410156 124.22119141 C9.43275823 105.16906549 10.34715159 79.26163398 8.07714844 55.88769531 C6.17503891 40.89507348 0.8935199 24.892551 -10.96582031 14.80712891 C-30.03113702 1.50867659 -60.89038346 -1.52203281 -78.64160156 15.78369141 Z " fill="#000000" transform="translate(1445.6416015625,127.21630859375)"/>
<path d="M0 0 C0 6.6 0 13.2 0 20 C-4.7025 20.495 -4.7025 20.495 -9.5 21 C-23.58637717 22.82166556 -36.40327369 28.1613444 -46 39 C-46.48835894 39.5138047 -46.97671787 40.02760941 -47.47987556 40.55698395 C-52.5194922 46.39705863 -52.85856252 51.21197817 -52.77294922 58.74023438 C-52.78357895 59.89232391 -52.79420868 61.04441345 -52.80516052 62.23141479 C-52.833146 66.019308 -52.81916783 69.80580127 -52.8046875 73.59375 C-52.81594066 76.22791762 -52.82982261 78.86207521 -52.84622192 81.49621582 C-52.88047974 87.70800772 -52.88451205 93.91943106 -52.87749684 100.13129854 C-52.8709911 107.20763959 -52.89846728 114.28372363 -52.92869925 121.35998821 C-52.99009097 135.9066691 -53.00792397 150.45319571 -53 165 C-59.93 165 -66.86 165 -74 165 C-74 111.21 -74 57.42 -74 2 C-67.73 2 -61.46 2 -55 2 C-54.5625 10.0625 -54.5625 10.0625 -54.43188477 12.55883789 C-54.17521113 17.0905114 -53.70856424 21.51639602 -53 26 C-52.18208984 25.05640625 -52.18208984 25.05640625 -51.34765625 24.09375 C-36.26726412 6.97686047 -22.98050019 -0.48894681 0 0 Z " fill="#000000" transform="translate(1596,116)"/>
<path d="M0 0 C7.26 0 14.52 0 22 0 C23.11632812 2.99707031 24.23265625 5.99414062 25.3828125 9.08203125 C29.1661033 19.2389715 32.95031015 29.39557029 36.73480225 39.55206299 C39.35867367 46.59394305 41.98181034 53.63609614 44.6041317 60.67855358 C46.53054475 65.85197351 48.45761484 71.02514844 50.3850956 76.19817066 C51.54056151 79.29931709 52.69565093 82.40060236 53.85015869 85.50210571 C60.49829305 103.36104524 67.22291919 121.18968053 74 139 C80.60078798 122.90613671 86.66199155 106.62119604 92.69046021 90.30722046 C94.39988509 85.68130276 96.11339683 81.05690603 97.82788086 76.43286133 C98.25803324 75.272698 98.25803324 75.272698 98.69687557 74.08909702 C99.2759102 72.52743662 99.85496183 70.96578252 100.43403053 69.40413475 C101.29873164 67.07193428 102.16315412 64.7396307 103.0275116 62.40730286 C107.79948537 49.53216691 112.58499774 36.66216968 117.39752197 23.80212402 C118.17165177 21.73245128 118.94473019 19.66238496 119.71673584 17.59191895 C120.76815229 14.77252256 121.82298485 11.95443043 122.87890625 9.13671875 C123.18491257 8.31421127 123.49091888 7.4917038 123.80619812 6.64427185 C125.88550168 1.11449832 125.88550168 1.11449832 127 0 C128.56172745 -0.08685603 130.12729344 -0.10702219 131.69140625 -0.09765625 C132.63564453 -0.09443359 133.57988281 -0.09121094 134.55273438 -0.08789062 C135.54595703 -0.07951172 136.53917969 -0.07113281 137.5625 -0.0625 C138.55958984 -0.05798828 139.55667969 -0.05347656 140.58398438 -0.04882812 C143.05604849 -0.03700007 145.52799518 -0.02051849 148 0 C143.80515302 12.19590369 139.26362501 24.23554808 134.57171631 36.24819946 C132.46916042 41.63198431 130.37583672 47.01936088 128.28125 52.40625 C127.84658417 53.52348953 127.41191833 54.64072906 126.96408081 55.79182434 C122.65688866 66.86848997 118.388281 77.95986739 114.12667847 89.05413818 C112.87999959 92.2994851 111.63262669 95.54456437 110.38500977 98.78955078 C109.97588852 99.8536618 109.56676727 100.91777283 109.14524841 102.01412964 C108.737668 103.07423248 108.33008759 104.13433533 107.91015625 105.2265625 C105.43401925 111.6673692 102.95831988 118.1083432 100.48388672 124.54980469 C98.47378693 129.7817542 96.46092673 135.01263416 94.44610596 140.24276733 C93.69492995 142.19407372 92.94471442 144.14575014 92.19549561 146.09780884 C91.17053963 148.7679792 90.14233328 151.43687482 89.11328125 154.10546875 C88.65857704 155.29352615 88.65857704 155.29352615 88.19468689 156.50558472 C86.11409143 161.88590857 86.11409143 161.88590857 85 163 C83.36527118 163.08700342 81.72685945 163.10701063 80.08984375 163.09765625 C79.10048828 163.09443359 78.11113281 163.09121094 77.09179688 163.08789062 C76.05087891 163.07951172 75.00996094 163.07113281 73.9375 163.0625 C72.89271484 163.05798828 71.84792969 163.05347656 70.77148438 163.04882812 C68.1809334 163.03699913 65.59049441 163.02051689 63 163 C62.53440674 161.7931958 62.06881348 160.5863916 61.58911133 159.34301758 C52.38664103 135.50209467 43.11870578 111.68895191 33.6875 87.9375 C32.82360469 85.76084119 31.95975401 83.58416466 31.09594727 81.4074707 C30.6634819 80.31772446 30.23101654 79.22797821 29.78544617 78.10520935 C29.34964737 77.0070137 28.91384857 75.90881805 28.46484375 74.77734375 C28.02723221 73.6745961 27.58962067 72.57184845 27.13874817 71.4356842 C22.4112999 59.52037559 17.68977646 47.60274422 12.98892879 35.67691326 C11.753479 32.54275521 10.51661856 29.40917349 9.27597046 26.27706909 C7.90398712 22.81125651 6.53728405 19.34340688 5.171875 15.875 C4.55784569 14.32885765 4.55784569 14.32885765 3.93141174 12.7514801 C3.55798141 11.79966354 3.18455109 10.84784698 2.79980469 9.8671875 C2.47453796 9.04331543 2.14927124 8.21944336 1.81414795 7.37060547 C1 5 1 5 0 0 Z " fill="#000000" transform="translate(925,118)"/>
<path d="M0 0 C6.93 0 13.86 0 21 0 C21 53.79 21 107.58 21 163 C14.07 163 7.14 163 0 163 C0 109.21 0 55.42 0 0 Z " fill="#000000" transform="translate(1100,118)"/>
<path d="M0 0 C7.26 0 14.52 0 22 0 C33.48211733 29.04510676 44.91812888 58.10825086 56.32470703 87.18310547 C58.4716088 92.65497443 60.62171322 98.12557777 62.77278137 103.59580994 C64.29052315 107.45756841 65.80541334 111.32044015 67.31936646 115.1836853 C68.01861078 116.96639345 68.71901494 118.74864714 69.42062378 120.53042603 C70.37470144 122.95396281 71.32462174 125.37908684 72.2734375 127.8046875 C72.69356361 128.86756737 72.69356361 128.86756737 73.12217712 129.95191956 C75 134.77166116 75 134.77166116 75 137 C75.66 137 76.32 137 77 137 C77.09861328 136.36376709 77.19722656 135.72753418 77.29882812 135.07202148 C78.25950969 130.86301867 79.73904096 126.89907429 81.21875 122.84765625 C81.71310799 121.48149673 81.71310799 121.48149673 82.217453 120.08773804 C83.30790936 117.0779588 84.40379307 114.07018912 85.5 111.0625 C86.2681334 108.94740088 87.03611613 106.83224704 87.80395508 104.71704102 C94.76666282 85.55870576 101.83097052 66.43807255 108.91903687 47.32583618 C111.34130424 40.78995073 113.74676974 34.24803652 116.14453125 27.703125 C116.80181554 25.91088 117.45912296 24.11864348 118.11645508 22.32641602 C119.0509283 19.77831266 119.98452102 17.22990652 120.91513062 14.6803894 C121.75351924 12.38369463 122.59516283 10.08821767 123.4375 7.79296875 C123.68454178 7.11312927 123.93158356 6.43328979 124.18611145 5.73284912 C125.88625364 1.11374636 125.88625364 1.11374636 127 0 C128.56172745 -0.08685603 130.12729344 -0.10702219 131.69140625 -0.09765625 C132.63564453 -0.09443359 133.57988281 -0.09121094 134.55273438 -0.08789062 C135.54595703 -0.07951172 136.53917969 -0.07113281 137.5625 -0.0625 C138.55958984 -0.05798828 139.55667969 -0.05347656 140.58398438 -0.04882812 C143.05604849 -0.03700007 145.52799518 -0.02051849 148 0 C143.6773846 12.5611742 138.99726244 24.96791855 134.20269775 37.35580444 C131.98024233 43.09849674 129.76598949 48.84435289 127.55078125 54.58984375 C127.09153259 55.78041885 126.63228394 56.97099396 126.15911865 58.19764709 C121.71720706 69.71916503 117.31535861 81.25581837 112.91833496 92.79452515 C108.95237296 103.19895227 104.97694932 113.5997686 101 124 C100.76222084 124.62193741 100.52444168 125.24387482 100.27945709 125.88465881 C97.31019986 133.65074167 94.33670946 141.41517513 91.35322571 149.17580509 C90.16773321 152.25957777 88.98416536 155.34404819 87.80377197 158.42977905 C67.53617741 211.39594942 67.53617741 211.39594942 52.44921875 219.34375 C44.14382313 222.87259791 36.03209613 223.16170507 27.125 223.125 C26.16335938 223.12886719 25.20171875 223.13273438 24.2109375 223.13671875 C23.29828125 223.13542969 22.385625 223.13414062 21.4453125 223.1328125 C20.61531738 223.13168457 19.78532227 223.13055664 18.93017578 223.12939453 C17 223 17 223 16 222 C15.90018786 219.3226862 15.86120125 216.67695825 15.875 214 C15.87113281 213.24976563 15.86726563 212.49953125 15.86328125 211.7265625 C15.87338947 206.12661053 15.87338947 206.12661053 17 205 C18.41719482 204.87945914 19.83975425 204.82049828 21.26171875 204.7890625 C22.13376953 204.76070312 23.00582031 204.73234375 23.90429688 204.703125 C25.74004498 204.65159523 27.57600801 204.60716615 29.41210938 204.5703125 C37.11400941 204.29907904 42.2579971 202.32440269 48 197 C53.19214929 189.61077356 56.96022288 181.2519229 60.5625 173 C60.92126221 172.19941162 61.28002441 171.39882324 61.6496582 170.57397461 C61.97281006 169.80706299 62.29596191 169.04015137 62.62890625 168.25 C63.0631189 167.23679687 63.0631189 167.23679687 63.50610352 166.203125 C64.56764282 161.46791456 62.83171136 157.15507725 60.98046875 152.828125 C60.54605469 151.79848633 60.11164063 150.76884766 59.6640625 149.70800781 C59.17679688 148.56686523 58.68953125 147.42572266 58.1875 146.25 C57.08183111 143.62725459 55.98345061 141.00149366 54.88671875 138.375 C54.58510834 137.65330627 54.28349792 136.93161255 53.9727478 136.18804932 C49.69833215 125.92270852 45.61406378 115.58032975 41.5 105.25 C34.56171075 87.84068969 27.53971306 70.46806446 20.4375 53.125 C14.98144711 39.79454343 9.53469572 26.46199558 4.25 13.0625 C3.80197021 11.93150879 3.35394043 10.80051758 2.89233398 9.63525391 C2.49989502 8.63284668 2.10745605 7.63043945 1.703125 6.59765625 C1.20280762 5.32160522 1.20280762 5.32160522 0.69238281 4.01977539 C0 2 0 2 0 0 Z " fill="#000000" transform="translate(1607,118)"/>
</svg>
